<svg xmlns="http://www.w3.org/2000/svg" xmlns:xlink="http://www.w3.org/1999/xlink" width="500" zoomAndPan="magnify" viewBox="0 0 375 374.999991" height="500" preserveAspectRatio="xMidYMid meet" version="1.0"><defs><g/><clipPath id="f2e39dcf07"><path d="M 28.210938 123.367188 L 122.59375 123.367188 L 122.59375 217.746094 L 28.210938 217.746094 Z M 28.210938 123.367188 " clip-rule="nonzero"/></clipPath><clipPath id="e2a70cea37"><path d="M 75.402344 123.367188 C 49.339844 123.367188 28.210938 144.492188 28.210938 170.554688 C 28.210938 196.617188 49.339844 217.746094 75.402344 217.746094 C 101.464844 217.746094 122.59375 196.617188 122.59375 170.554688 C 122.59375 144.492188 101.464844 123.367188 75.402344 123.367188 Z M 75.402344 123.367188 " clip-rule="nonzero"/></clipPath><clipPath id="97717db23c"><path d="M 28.210938 123.367188 L 122.582031 123.367188 L 122.582031 217.738281 L 28.210938 217.738281 Z M 28.210938 123.367188 " clip-rule="nonzero"/></clipPath><clipPath id="bf3b0480aa"><path d="M 75.398438 123.367188 C 49.339844 123.367188 28.210938 144.492188 28.210938 170.550781 C 28.210938 196.609375 49.339844 217.738281 75.398438 217.738281 C 101.457031 217.738281 122.582031 196.609375 122.582031 170.550781 C 122.582031 144.492188 101.457031 123.367188 75.398438 123.367188 Z M 75.398438 123.367188 " clip-rule="nonzero"/></clipPath><clipPath id="0215c4d468"><path d="M 8.820312 140.558594 L 141.988281 140.558594 L 141.988281 273.726562 L 8.820312 273.726562 Z M 8.820312 140.558594 " clip-rule="nonzero"/></clipPath><clipPath id="fa7991ecd9"><path d="M 75.402344 140.558594 C 38.628906 140.558594 8.820312 170.367188 8.820312 207.140625 C 8.820312 243.914062 38.628906 273.726562 75.402344 273.726562 C 112.175781 273.726562 141.988281 243.914062 141.988281 207.140625 C 141.988281 170.367188 112.175781 140.558594 75.402344 140.558594 Z M 75.402344 140.558594 " clip-rule="nonzero"/></clipPath><clipPath id="ebb50b8d26"><path d="M 51.992188 99.585938 L 99.242188 99.585938 L 99.242188 146.835938 L 51.992188 146.835938 Z M 51.992188 99.585938 " clip-rule="nonzero"/></clipPath><clipPath id="4bb31ef7b8"><path d="M 75.769531 99.585938 C 62.636719 99.585938 51.992188 110.230469 51.992188 123.363281 C 51.992188 136.496094 62.636719 147.140625 75.769531 147.140625 C 88.902344 147.140625 99.546875 136.496094 99.546875 123.363281 C 99.546875 110.230469 88.902344 99.585938 75.769531 99.585938 Z M 75.769531 99.585938 " clip-rule="nonzero"/></clipPath><clipPath id="26275f5cff"><path d="M 99.550781 155.410156 L 146.800781 155.410156 L 146.800781 202.660156 L 99.550781 202.660156 Z M 99.550781 155.410156 " clip-rule="nonzero"/></clipPath><clipPath id="0efb9a498e"><path d="M 123.328125 155.410156 C 110.199219 155.410156 99.550781 166.054688 99.550781 179.1875 C 99.550781 192.320312 110.199219 202.964844 123.328125 202.964844 C 136.460938 202.964844 147.105469 192.320312 147.105469 179.1875 C 147.105469 166.054688 136.460938 155.410156 123.328125 155.410156 Z M 123.328125 155.410156 " clip-rule="nonzero"/></clipPath><clipPath id="1a1c8ca3a9"><path d="M 4.433594 155.410156 L 51.683594 155.410156 L 51.683594 202.660156 L 4.433594 202.660156 Z M 4.433594 155.410156 " clip-rule="nonzero"/></clipPath><clipPath id="301ce84498"><path d="M 28.210938 155.410156 C 15.078125 155.410156 4.433594 166.054688 4.433594 179.1875 C 4.433594 192.320312 15.078125 202.964844 28.210938 202.964844 C 41.34375 202.964844 51.988281 192.320312 51.988281 179.1875 C 51.988281 166.054688 41.34375 155.410156 28.210938 155.410156 Z M 28.210938 155.410156 " clip-rule="nonzero"/></clipPath><clipPath id="e7b97f72d5"><path d="M 51.992188 99.585938 L 99.550781 99.585938 L 99.550781 147.144531 L 51.992188 147.144531 Z M 51.992188 99.585938 " clip-rule="nonzero"/></clipPath><clipPath id="48c1c93d6a"><path d="M 75.773438 99.585938 C 62.640625 99.585938 51.992188 110.230469 51.992188 123.367188 C 51.992188 136.5 62.640625 147.144531 75.773438 147.144531 C 88.90625 147.144531 99.550781 136.5 99.550781 123.367188 C 99.550781 110.230469 88.90625 99.585938 75.773438 99.585938 Z M 75.773438 99.585938 " clip-rule="nonzero"/></clipPath><clipPath id="67b3598fa1"><path d="M 51.992188 99.585938 L 99.242188 99.585938 L 99.242188 146.835938 L 51.992188 146.835938 Z M 51.992188 99.585938 " clip-rule="nonzero"/></clipPath><clipPath id="dd2f877f20"><path d="M 75.769531 99.585938 C 62.636719 99.585938 51.992188 110.230469 51.992188 123.363281 C 51.992188 136.496094 62.636719 147.140625 75.769531 147.140625 C 88.902344 147.140625 99.546875 136.496094 99.546875 123.363281 C 99.546875 110.230469 88.902344 99.585938 75.769531 99.585938 Z M 75.769531 99.585938 " clip-rule="nonzero"/></clipPath></defs><g clip-path="url(#f2e39dcf07)"><g clip-path="url(#e2a70cea37)"><path fill="#ffffff" d="M 28.210938 123.367188 L 122.59375 123.367188 L 122.59375 217.746094 L 28.210938 217.746094 Z M 28.210938 123.367188 " fill-opacity="1" fill-rule="nonzero"/></g></g><g clip-path="url(#97717db23c)"><g clip-path="url(#bf3b0480aa)"><path stroke-linecap="butt" transform="matrix(0.75, 0, 0, 0.75, 28.212807, 123.3655)" fill="none" stroke-linejoin="miter" d="M 62.914178 0.00225013 C 28.169384 0.00225013 -0.00249284 28.168919 -0.00249284 62.913713 C -0.00249284 97.658507 28.169384 125.830383 62.914178 125.830383 C 97.658972 125.830383 125.82564 97.658507 125.82564 62.913713 C 125.82564 28.168919 97.658972 0.00225013 62.914178 0.00225013 Z M 62.914178 0.00225013 " stroke="#159987" stroke-width="8" stroke-opacity="1" stroke-miterlimit="4"/></g></g><g clip-path="url(#0215c4d468)"><g clip-path="url(#fa7991ecd9)"><path fill="#ffffff" d="M 8.820312 140.558594 L 141.988281 140.558594 L 141.988281 273.726562 L 8.820312 273.726562 Z M 8.820312 140.558594 " fill-opacity="1" fill-rule="nonzero"/></g></g><g clip-path="url(#ebb50b8d26)"><g clip-path="url(#4bb31ef7b8)"><path stroke-linecap="butt" transform="matrix(0.75, 0, 0, 0.75, 51.992766, 99.585543)" fill="none" stroke-linejoin="miter" d="M 31.702356 0.000525919 C 14.191938 0.000525919 -0.000771181 14.193235 -0.000771181 31.703653 C -0.000771181 49.214071 14.191938 63.40678 31.702356 63.40678 C 49.212774 63.40678 63.405483 49.214071 63.405483 31.703653 C 63.405483 14.193235 49.212774 0.000525919 31.702356 0.000525919 Z M 31.702356 0.000525919 " stroke="#000000" stroke-width="8" stroke-opacity="1" stroke-miterlimit="4"/></g></g><g clip-path="url(#26275f5cff)"><g clip-path="url(#0efb9a498e)"><path stroke-linecap="butt" transform="matrix(0.75, 0, 0, 0.75, 99.552677, 155.409175)" fill="none" stroke-linejoin="miter" d="M 31.700599 0.00130887 C 14.19539 0.00130887 -0.00252788 14.194018 -0.00252788 31.704436 C -0.00252788 49.214854 14.19539 63.407563 31.700599 63.407563 C 49.211017 63.407563 63.403726 49.214854 63.403726 31.704436 C 63.403726 14.194018 49.211017 0.00130887 31.700599 0.00130887 Z M 31.700599 0.00130887 " stroke="#eb5601" stroke-width="8" stroke-opacity="1" stroke-miterlimit="4"/></g></g><g clip-path="url(#1a1c8ca3a9)"><g clip-path="url(#301ce84498)"><path stroke-linecap="butt" transform="matrix(0.75, 0, 0, 0.75, 4.432848, 155.409175)" fill="none" stroke-linejoin="miter" d="M 31.704121 0.00130887 C 14.193703 0.00130887 0.000993842 14.194018 0.000993842 31.704436 C 0.000993842 49.214854 14.193703 63.407563 31.704121 63.407563 C 49.214539 63.407563 63.407248 49.214854 63.407248 31.704436 C 63.407248 14.194018 49.214539 0.00130887 31.704121 0.00130887 Z M 31.704121 0.00130887 " stroke="#eb5601" stroke-width="8" stroke-opacity="1" stroke-miterlimit="4"/></g></g><g clip-path="url(#e7b97f72d5)"><g clip-path="url(#48c1c93d6a)"><path fill="#ffffff" d="M 51.992188 99.585938 L 99.550781 99.585938 L 99.550781 147.144531 L 51.992188 147.144531 Z M 51.992188 99.585938 " fill-opacity="1" fill-rule="nonzero"/></g></g><g clip-path="url(#67b3598fa1)"><g clip-path="url(#dd2f877f20)"><path stroke-linecap="butt" transform="matrix(0.75, 0, 0, 0.75, 51.992766, 99.585543)" fill="none" stroke-linejoin="miter" d="M 31.702356 0.000525919 C 14.191938 0.000525919 -0.000771181 14.193235 -0.000771181 31.703653 C -0.000771181 49.214071 14.191938 63.40678 31.702356 63.40678 C 49.212774 63.40678 63.405483 49.214071 63.405483 31.703653 C 63.405483 14.193235 49.212774 0.000525919 31.702356 0.000525919 Z M 31.702356 0.000525919 " stroke="#eb5601" stroke-width="8" stroke-opacity="1" stroke-miterlimit="4"/></g></g><g fill="#000000" fill-opacity="1"><g transform="translate(194.503614, 174.509136)"><g><path d="M 33.5 -15.484375 C 33.5 -12.410156 32.8125 -9.648438 31.4375 -7.203125 C 30.0625 -4.765625 28.179688 -2.851562 25.796875 -1.46875 C 23.410156 -0.09375 20.78125 0.59375 17.90625 0.59375 C 15.03125 0.59375 12.398438 -0.09375 10.015625 -1.46875 C 7.628906 -2.851562 5.742188 -4.765625 4.359375 -7.203125 C 2.984375 -9.648438 2.296875 -12.410156 2.296875 -15.484375 C 2.296875 -18.554688 2.984375 -21.332031 4.359375 -23.8125 C 5.742188 -26.289062 7.628906 -28.21875 10.015625 -29.59375 C 12.398438 -30.976562 15.03125 -31.671875 17.90625 -31.671875 C 20.78125 -31.671875 23.410156 -30.976562 25.796875 -29.59375 C 28.179688 -28.21875 30.0625 -26.289062 31.4375 -23.8125 C 32.8125 -21.332031 33.5 -18.554688 33.5 -15.484375 Z M 27.890625 -15.484375 C 27.890625 -17.609375 27.445312 -19.507812 26.5625 -21.1875 C 25.675781 -22.863281 24.472656 -24.160156 22.953125 -25.078125 C 21.441406 -26.003906 19.757812 -26.46875 17.90625 -26.46875 C 16.050781 -26.46875 14.363281 -26.003906 12.84375 -25.078125 C 11.332031 -24.160156 10.132812 -22.863281 9.25 -21.1875 C 8.363281 -19.507812 7.921875 -17.609375 7.921875 -15.484375 C 7.921875 -13.390625 8.363281 -11.515625 9.25 -9.859375 C 10.132812 -8.210938 11.332031 -6.925781 12.84375 -6 C 14.363281 -5.070312 16.050781 -4.609375 17.90625 -4.609375 C 19.757812 -4.609375 21.441406 -5.070312 22.953125 -6 C 24.472656 -6.925781 25.675781 -8.210938 26.5625 -9.859375 C 27.445312 -11.515625 27.890625 -13.390625 27.890625 -15.484375 Z M 27.890625 -15.484375 "/></g></g></g><g fill="#000000" fill-opacity="1"><g transform="translate(230.312368, 174.509136)"><g><path d="M 5.96875 -14.1875 C 5.175781 -14.1875 4.503906 -14.453125 3.953125 -14.984375 C 3.398438 -15.515625 3.125 -16.191406 3.125 -17.015625 C 3.125 -17.804688 3.398438 -18.457031 3.953125 -18.96875 C 4.503906 -19.476562 5.175781 -19.734375 5.96875 -19.734375 L 17.3125 -19.734375 C 18.101562 -19.734375 18.765625 -19.46875 19.296875 -18.9375 C 19.828125 -18.40625 20.09375 -17.726562 20.09375 -16.90625 C 20.09375 -16.113281 19.828125 -15.460938 19.296875 -14.953125 C 18.765625 -14.441406 18.101562 -14.1875 17.3125 -14.1875 Z M 5.96875 -14.1875 "/></g></g></g><g fill="#000000" fill-opacity="1"><g transform="translate(253.593964, 174.509136)"><g><path d="M 36.40625 -4.734375 C 36.800781 -4.453125 37.113281 -4.101562 37.34375 -3.6875 C 37.582031 -3.28125 37.703125 -2.859375 37.703125 -2.421875 C 37.703125 -1.597656 37.4375 -0.988281 36.90625 -0.59375 C 36.375 -0.195312 35.734375 0 34.984375 0 C 34.234375 0 33.601562 -0.15625 33.09375 -0.46875 C 31.90625 -1.144531 30.9375 -2.226562 30.1875 -3.71875 C 29.445312 -5.21875 29.078125 -7.425781 29.078125 -10.34375 C 29.078125 -12.3125 28.484375 -13.765625 27.296875 -14.703125 C 26.117188 -15.648438 24.582031 -16.125 22.6875 -16.125 L 10.75 -16.125 L 10.75 -2.84375 C 10.75 -2.007812 10.515625 -1.328125 10.046875 -0.796875 C 9.578125 -0.265625 8.96875 0 8.21875 0 C 7.3125 0 6.53125 -0.273438 5.875 -0.828125 C 5.226562 -1.378906 4.90625 -2.050781 4.90625 -2.84375 L 4.90625 -38.53125 C 4.90625 -39.320312 5.179688 -39.988281 5.734375 -40.53125 C 6.285156 -41.082031 6.953125 -41.359375 7.734375 -41.359375 L 24.34375 -41.359375 C 26.46875 -41.359375 28.414062 -40.835938 30.1875 -39.796875 C 31.96875 -38.753906 33.390625 -37.316406 34.453125 -35.484375 C 35.515625 -33.648438 36.046875 -31.59375 36.046875 -29.3125 C 36.046875 -27.101562 35.453125 -25.039062 34.265625 -23.125 C 33.085938 -21.21875 31.570312 -19.789062 29.71875 -18.84375 C 31.175781 -18.101562 32.328125 -17.0625 33.171875 -15.71875 C 34.023438 -14.375 34.488281 -12.816406 34.5625 -11.046875 C 34.726562 -8.804688 34.90625 -7.28125 35.09375 -6.46875 C 35.289062 -5.664062 35.726562 -5.085938 36.40625 -4.734375 Z M 24.234375 -21.03125 C 25.210938 -21.113281 26.144531 -21.507812 27.03125 -22.21875 C 27.914062 -22.925781 28.632812 -23.878906 29.1875 -25.078125 C 29.738281 -26.285156 30.015625 -27.640625 30.015625 -29.140625 C 30.015625 -31.023438 29.429688 -32.625 28.265625 -33.9375 C 27.109375 -35.257812 25.703125 -35.921875 24.046875 -35.921875 L 10.75 -35.921875 L 10.75 -21.03125 Z M 24.234375 -21.03125 "/></g></g></g><g fill="#000000" fill-opacity="1"><g transform="translate(293.775406, 174.509136)"><g><path d="M 22.28125 -41.359375 C 25.976562 -41.359375 29.144531 -40.429688 31.78125 -38.578125 C 34.425781 -36.734375 36.414062 -34.242188 37.75 -31.109375 C 39.09375 -27.984375 39.765625 -24.507812 39.765625 -20.6875 C 39.765625 -16.820312 39.09375 -13.320312 37.75 -10.1875 C 36.414062 -7.0625 34.425781 -4.582031 31.78125 -2.75 C 29.144531 -0.914062 25.976562 0 22.28125 0 L 7.734375 0 C 6.953125 0 6.285156 -0.273438 5.734375 -0.828125 C 5.179688 -1.378906 4.90625 -2.050781 4.90625 -2.84375 L 4.90625 -38.53125 C 4.90625 -39.320312 5.179688 -39.988281 5.734375 -40.53125 C 6.285156 -41.082031 6.953125 -41.359375 7.734375 -41.359375 Z M 21.6875 -5.4375 C 25.707031 -5.4375 28.722656 -6.863281 30.734375 -9.71875 C 32.742188 -12.570312 33.75 -16.226562 33.75 -20.6875 C 33.75 -25.09375 32.734375 -28.734375 30.703125 -31.609375 C 28.671875 -34.484375 25.664062 -35.921875 21.6875 -35.921875 L 10.75 -35.921875 L 10.75 -5.4375 Z M 21.6875 -5.4375 "/></g></g></g><g fill="#000000" fill-opacity="1"><g transform="translate(336.143192, 174.509136)"><g><path d="M 17.4375 0.59375 C 14.5625 0.59375 12.019531 0.191406 9.8125 -0.609375 C 7.601562 -1.421875 5.492188 -2.734375 3.484375 -4.546875 C 2.660156 -5.253906 2.25 -6.0625 2.25 -6.96875 C 2.25 -7.675781 2.523438 -8.316406 3.078125 -8.890625 C 3.628906 -9.460938 4.273438 -9.75 5.015625 -9.75 C 5.691406 -9.75 6.265625 -9.53125 6.734375 -9.09375 C 8.304688 -7.632812 9.929688 -6.5625 11.609375 -5.875 C 13.285156 -5.1875 15.1875 -4.84375 17.3125 -4.84375 C 19.789062 -4.84375 21.882812 -5.410156 23.59375 -6.546875 C 25.3125 -7.691406 26.171875 -9.132812 26.171875 -10.875 C 26.140625 -12.925781 25.285156 -14.507812 23.609375 -15.625 C 21.929688 -16.75 19.378906 -17.6875 15.953125 -18.4375 C 11.898438 -19.257812 8.78125 -20.613281 6.59375 -22.5 C 4.40625 -24.394531 3.3125 -27.019531 3.3125 -30.375 C 3.3125 -32.695312 3.921875 -34.734375 5.140625 -36.484375 C 6.359375 -38.242188 8.050781 -39.59375 10.21875 -40.53125 C 12.382812 -41.476562 14.828125 -41.953125 17.546875 -41.953125 C 19.992188 -41.953125 22.300781 -41.554688 24.46875 -40.765625 C 26.632812 -39.984375 28.382812 -38.941406 29.71875 -37.640625 C 30.625 -36.847656 31.078125 -36.003906 31.078125 -35.109375 C 31.078125 -34.390625 30.8125 -33.753906 30.28125 -33.203125 C 29.75 -32.660156 29.109375 -32.390625 28.359375 -32.390625 C 27.804688 -32.390625 27.351562 -32.546875 27 -32.859375 C 25.976562 -33.878906 24.5625 -34.742188 22.75 -35.453125 C 20.9375 -36.160156 19.203125 -36.515625 17.546875 -36.515625 C 14.910156 -36.515625 12.8125 -35.972656 11.25 -34.890625 C 9.695312 -33.804688 8.921875 -32.378906 8.921875 -30.609375 C 8.921875 -28.679688 9.695312 -27.203125 11.25 -26.171875 C 12.8125 -25.148438 15.128906 -24.285156 18.203125 -23.578125 C 21.273438 -22.910156 23.785156 -22.125 25.734375 -21.21875 C 27.679688 -20.3125 29.1875 -19.050781 30.25 -17.4375 C 31.3125 -15.820312 31.84375 -13.710938 31.84375 -11.109375 C 31.84375 -8.828125 31.203125 -6.796875 29.921875 -5.015625 C 28.648438 -3.242188 26.910156 -1.863281 24.703125 -0.875 C 22.492188 0.101562 20.070312 0.59375 17.4375 0.59375 Z M 17.4375 0.59375 "/></g></g></g></svg>